<svg xmlns="http://www.w3.org/2000/svg" viewBox="0 0 120 90" width="120" height="90">
  <!-- Gamepad outline shape — bottom closer to buttons -->
  <path d="
    M32 20 L88 20
    Q102 20 102 34
    L102 66
    Q102 72 88 72
    L32 72
    Q18 72 18 66
    L18 34
    Q18 20 32 20 Z
  " fill="none" stroke="#5b4fcf" stroke-width="3.5" stroke-linejoin="round" stroke-linecap="round"/>

  <!-- Cable -->
  <path d="M60 20 Q60 12 65 9 Q70 6 70 2" fill="none" stroke="#5b4fcf" stroke-width="3" stroke-linecap="round"/>

  <!-- D-pad vertical -->
  <rect x="33" y="32" width="7" height="22" rx="2" fill="#5b4fcf"/>
  <!-- D-pad horizontal -->
  <rect x="26" y="39" width="21" height="7" rx="2" fill="#5b4fcf"/>

  <!-- Face buttons -->
  <circle cx="80" cy="35" r="4.5" fill="#5b4fcf"/>
  <circle cx="91" cy="45" r="4.5" fill="#5b4fcf"/>
  <circle cx="80" cy="55" r="4.5" fill="#5b4fcf"/>
  <circle cx="69" cy="45" r="4.5" fill="#5b4fcf"/>
</svg>
